#!OML:ASF I:\Actors\actors\Patient Classification 2\Patient 1\Session 1\actor1.ASF
:FULLY-SPECIFIED
:DEGREES
140
root -0.605677 18.1985 5.45208 3.88205 -4.43874 -2.34093
lowerback -1.34421 1.75965 0.0830858
upperback -3.36169 2.35343 0.259656
thorax -2.70337 1.17725 0.195268
lowerneck -11.2953 -3.35128 -1.81416
upperneck 23.7635 -5.78411 5.75134
head 9.58757 -2.23905 1.62318
rclavicle 2.14563e-014 1.39149e-015
rhumerus -51.0861 29.8471 -93.9082
rradius 109.039
rwrist -34.222
rhand -5.32045 -43.99
rfingers 7.12502
rthumb 20.4855 -72.9293
lclavicle 2.14563e-014 1.39149e-015
lhumerus -5.86693 -0.633859 73.6503
lradius 111.035
lwrist 66.8345
lhand -37.5234 -31.7963
lfingers 7.12502
lthumb -10.5795 -2.08262
rfemur 6.90167 4.03362 15.9276
rtibia -8.64436
rfoot -10.7465 -12.3429
rtoes 2.18056
lfemur 10.0688 -9.0841 -12.5514
ltibia -9.5237
lfoot -9.94777 21.1199
ltoes -9.10533
141
root -0.585317 18.203 5.44554 4.04481 -4.53053 -2.35564
lowerback -1.17522 1.81085 0.326242
upperback -3.50256 2.42428 0.247592
thorax -2.93364 1.20555 0.0376071
lowerneck -11.1762 -3.37997 -2.01679
upperneck 23.7346 -5.81139 5.87821
head 9.56582 -2.25904 1.69984
rclavicle 1.96921e-014 1.0138e-014
rhumerus -51.423 30.1751 -93.9746
rradius 109.35
rwrist -34.9907
rhand -4.77731 -44.1962
rfingers 7.12502
rthumb 21.0074 -73.0785
lclavicle 1.96921e-014 1.0138e-014
lhumerus -6.04156 -0.758237 74.3127
lradius 111.127
lwrist 66.0538
lhand -38.116 -32.8236
lfingers 7.12502
lthumb -11.1512 -3.13994
rfemur 6.56532 4.12109 15.8737
rtibia -8.52663
rfoot -10.6895 -12.3871
rtoes 1.97715
lfemur 9.93804 -8.9646 -12.5626
ltibia -9.66967
lfoot -9.83333 21.147
ltoes -8.94418
142
root -0.574521 18.2045 5.44285 4.09684 -4.55029 -2.38325
lowerback -0.937264 1.83691 0.412138
upperback -3.61614 2.46338 0.292374
thorax -3.18354 1.22253 0.0241206
lowerneck -11.0667 -3.39866 -2.21636
upperneck 23.7238 -5.82345 5.99181
head 9.5511 -2.27253 1.77319
rclavicle 1.16413e-014 1.98785e-016
rhumerus -51.6946 30.4287 -93.968
rradius 109.559
rwrist -35.3782
rhand -4.54098 -44.5159
rfingers 7.12502
rthumb 21.2344 -73.3728
lclavicle 1.16413e-014 1.98785e-016
lhumerus -6.55917 -1.07394 75.4482
lradius 111.41
lwrist 65.2327
lhand -38.6182 -33.8476
lfingers 7.12502
lthumb -11.6355 -4.1907
rfemur 6.39027 4.14403 15.8584
rtibia -8.3609
rfoot -10.746 -12.3479
rtoes 2.33434
lfemur 9.95455 -8.93481 -12.5442
ltibia -9.83545
lfoot -9.78854 21.1622
ltoes -8.52391
143
root -0.576339 18.2037 5.44703 4.07159 -4.73666 -2.4177
lowerback -0.751903 1.93595 0.34225
upperback -3.6602 2.5983 0.354061
thorax -3.33959 1.29244 0.115879
lowerneck -11.0731 -3.45419 -2.47363
upperneck 23.7919 -5.89154 6.14966
head 9.59248 -2.30838 1.8638
rclavicle -1.20016e-014 -5.76476e-015
rhumerus -51.9013 30.5793 -93.97
rradius 109.736
rwrist -35.6674
rhand -4.75374 -44.5712
rfingers 7.12502
rthumb 21.03 -73.4509
lclavicle -1.20016e-014 -5.76476e-015
lhumerus -7.35036 -1.79776 76.9351
lradius 111.908
lwrist 64.6565
lhand -38.9686 -34.7724
lfingers 7.12502
lthumb -11.9734 -5.13486
rfemur 6.32371 4.33357 15.883
rtibia -8.19567
rfoot -10.8213 -12.3005
rtoes 2.66348
lfemur 10.1356 -8.7539 -12.5231
ltibia -9.98473
lfoot -9.81609 21.1702
ltoes -8.38729
144
root -0.55899 18.2056 5.45453 4.11563 -4.29743 -2.37411
lowerback -0.626781 1.86314 0.61009
upperback -3.7326 2.50365 0.258211
thorax -3.46932 1.2349 -0.135835
lowerneck -11.138 -3.52375 -2.69609
upperneck 23.9187 -6.0112 6.38869
head 9.67098 -2.35381 1.9703
rclavicle -3.6154e-015 4.77083e-015
rhumerus -52.1138 30.5625 -94.0659
rradius 109.896
rwrist -35.9964
rhand -4.614 -44.3975
rfingers 7.12502
rthumb 21.1643 -73.2623
lclavicle -3.6154e-015 4.77083e-015
lhumerus -8.53192 -3.02651 78.7194
lradius 112.648
lwrist 64.3556
lhand -39.1639 -35.4821
lfingers 7.12502
lthumb -12.1617 -5.8556
rfemur 6.31722 3.90016 15.7925
rtibia -8.10768
rfoot -10.885 -12.2771
rtoes 2.58931
lfemur 10.0215 -9.17059 -12.608
ltibia -10.0714
lfoot -9.68156 21.2184
ltoes -8.74873
145
root -0.548541 18.2062 5.46215 4.18829 -4.08121 -2.35629
lowerback -0.504214 1.88735 0.775044
upperback -3.81349 2.5379 0.167696
thorax -3.61107 1.2444 -0.327794
lowerneck -11.2602 -3.59608 -2.80099
upperneck 24.0452 -6.1486 6.58457
head 9.7572 -2.40005 2.03901
rclavicle 2.65129e-014 -9.93923e-016
rhumerus -52.2354 30.424 -94.125
rradius 110.029
rwrist -36.3654
rhand -4.30246 -44.3779
rfingers 7.12502
rthumb 21.4635 -73.2088
lclavicle 2.65129e-014 -9.93923e-016
lhumerus -10.104 -4.62185 80.9784
lradius 113.495
lwrist 64.0213
lhand -39.1996 -35.8596
lfingers 7.12502
lthumb -12.1961 -6.23521
rfemur 6.27469 3.6846 15.7384
rtibia -8.05639
rfoot -10.9205 -12.2623
rtoes 2.44423
lfemur 9.89643 -9.19681 -12.6212
ltibia -10.0746
lfoot -9.58808 21.0669
ltoes -8.84351
146
root -0.551425 18.2043 5.47482 4.14758 -3.88833 -2.35635
lowerback -0.443473 1.88877 0.689744
upperback -3.78515 2.53895 0.166426
thorax -3.61955 1.24764 -0.283203
lowerneck -11.4052 -3.6572 -2.74124
upperneck 24.0986 -6.24948 6.58126
head 9.808 -2.43707 2.01353
rclavicle -3.45513e-014 8.74653e-015
rhumerus -52.1661 30.4079 -94.0947
rradius 110.107
rwrist -36.658
rhand -4.21535 -44.5438
rfingers 7.12502
rthumb 21.5472 -73.3652
lclavicle -3.45513e-014 8.74653e-015
lhumerus -11.8976 -6.35316 83.6274
lradius 114.307
lwrist 63.5607
lhand -39.1972 -36.0759
lfingers 7.12502
lthumb -12.1938 -6.45136
rfemur 6.35164 3.49752 15.7427
rtibia -7.87295
rfoot -11.0784 -12.1607
rtoes 2.32602
lfemur 9.95998 -9.01662 -12.5815
ltibia -10.1095
lfoot -9.40848 20.7193
ltoes -9.14503
